<?xml version="1.0" encoding="UTF-8"?>
<svg version="1.1" xmlns="http://www.w3.org/2000/svg" width="225" height="225">
<path d="M0 0 C21.65126597 18.0549994 36.40168867 45.24379398 39.21411133 73.34106445 C41.65379914 105.03725149 33.7949329 134.77607233 13.08544922 159.23828125 C6.33649561 167.10151776 -0.95611189 173.92549387 -9.60498047 179.69140625 C-12.06739144 179.47776769 -13.21341282 179.10104916 -14.92984009 177.3053894 C-15.31715302 176.71331696 -15.70446594 176.12124451 -16.10351562 175.51123047 C-16.55143463 174.8389743 -16.99935364 174.16671814 -17.46084595 173.47409058 C-17.93380096 172.73885162 -18.40675598 172.00361267 -18.89404297 171.24609375 C-19.39737152 170.48402618 -19.90070007 169.72195862 -20.41928101 168.9367981 C-22.03381826 166.48700807 -23.63210396 164.02708787 -25.22998047 161.56640625 C-26.28229256 159.9628368 -27.33566758 158.35996434 -28.39013672 156.7578125 C-30.48174034 153.57700603 -32.56773007 150.39262883 -34.64941406 147.20532227 C-38.46571737 141.36799527 -42.33810896 135.56872742 -46.21490479 129.77148438 C-48.9555071 125.67050844 -51.68975415 121.5652919 -54.42529297 117.4609375 C-55.63230063 115.6503749 -56.8393321 113.83982817 -58.04638672 112.02929688 C-72.20458984 90.79199219 -72.20458984 90.79199219 -86.36279297 69.5546875 C-86.75805176 68.96196045 -87.15331055 68.3692334 -87.56054688 67.75854492 C-88.37331608 66.53905176 -89.18544412 65.31913113 -89.99707031 64.09887695 C-91.8424954 61.32574976 -93.69510969 58.55943131 -95.57373047 55.80859375 C-96.12029297 55.00679688 -96.66685547 54.205 -97.22998047 53.37890625 C-97.92994141 52.36376953 -97.92994141 52.36376953 -98.64404297 51.328125 C-99.60498047 49.69140625 -99.60498047 49.69140625 -99.60498047 47.69140625 C-103.89498047 47.69140625 -108.18498047 47.69140625 -112.60498047 47.69140625 C-112.60498047 76.40140625 -112.60498047 105.11140625 -112.60498047 134.69140625 C-108.64498047 134.69140625 -104.68498047 134.69140625 -100.60498047 134.69140625 C-100.60498047 114.23140625 -100.60498047 93.77140625 -100.60498047 72.69140625 C-97.30002275 73.79305882 -96.91861401 74.27194752 -95.03857422 77.015625 C-94.558479 77.70712646 -94.07838379 78.39862793 -93.58374023 79.11108398 C-93.07512451 79.85946533 -92.56650879 80.60784668 -92.04248047 81.37890625 C-90.9569151 82.94687229 -89.87097258 84.51457728 -88.78466797 86.08203125 C-88.24551758 86.86513672 -87.70636719 87.64824219 -87.15087891 88.45507812 C-85.02125128 91.53584077 -82.84967709 94.58525703 -80.66748047 97.62890625 C-80.26956299 98.18562012 -79.87164551 98.74233398 -79.46166992 99.31591797 C-76.06891229 104.0581364 -72.64866832 108.78036802 -69.22998047 113.50390625 C-64.98266277 119.37280272 -60.77258413 125.26564864 -56.60498047 131.19140625 C-50.89864532 139.30303074 -45.10016725 147.34584257 -39.28125 155.37695312 C-36.38559678 159.37502952 -33.49544334 163.37707674 -30.60498047 167.37890625 C-30.07718994 168.10907959 -29.54939941 168.83925293 -29.00561523 169.59155273 C-28.01035439 170.9690549 -27.0185658 172.34907444 -26.03076172 173.73193359 C-25.07358959 175.04738967 -24.09113009 176.34478219 -23.08544922 177.62353516 C-19.56443701 182.1860589 -19.56443701 182.1860589 -19.77270508 184.78198242 C-21.00475404 187.60857523 -23.19300061 188.19648229 -25.92504883 189.32958984 C-27.03505249 189.75618896 -27.03505249 189.75618896 -28.16748047 190.19140625 C-28.92746338 190.49256348 -29.68744629 190.7937207 -30.47045898 191.10400391 C-59.61202943 202.3074326 -91.60960673 201.57078546 -120.19482422 189.12890625 C-147.62714159 176.0341426 -168.50977424 153.95214948 -179.27294922 125.45703125 C-189.72151168 95.90554147 -187.83152296 63.79851494 -174.35498047 35.56640625 C-160.22196765 8.54651723 -137.71332429 -11.01690121 -108.97998047 -21.24609375 C-70.70514369 -32.76530823 -30.95097653 -25.23535659 0 0 Z M-47.60498047 47.69140625 C-47.90494305 55.19431657 -48.12088649 62.69363161 -48.26416016 70.20117188 C-48.32396437 72.74638762 -48.40544493 75.29120096 -48.51025391 77.83496094 C-49.21757525 95.46251843 -47.84472228 107.38550801 -35.60498047 120.69140625 C-35.27498047 120.69140625 -34.94498047 120.69140625 -34.60498047 120.69140625 C-34.60498047 96.60140625 -34.60498047 72.51140625 -34.60498047 47.69140625 C-38.89498047 47.69140625 -43.18498047 47.69140625 -47.60498047 47.69140625 Z " fill="#000000" transform="translate(185.60498046875,26.30859375)"/>
</svg>
