<?xml version="1.0" encoding="UTF-8"?>
<svg version="1.1" xmlns="http://www.w3.org/2000/svg" width="311" height="162">
<path d="M0 0 C7.87850725 6.22064632 13.54506109 13.4693246 15.09765625 23.65625 C16.08604586 35.68799277 13.54549947 47.01786466 6.09765625 56.65625 C-2.34314334 65.84416368 -11.58796806 69.57206712 -23.90234375 70.65625 C-32.94292933 71.02778091 -40.91608934 67.53239211 -48.0078125 62.01953125 C-56.0763509 54.37846508 -60.4965369 46.3312925 -61.08203125 35.2578125 C-61.300619 23.86696191 -59.85962402 14.62154245 -51.71484375 6.15625 C-50.45953183 4.97289863 -49.18779403 3.80679164 -47.90234375 2.65625 C-47.22042969 2.03234375 -46.53851563 1.4084375 -45.8359375 0.765625 C-32.47657576 -10.61014636 -13.95120067 -10.03895921 0 0 Z " fill="#080808" transform="translate(178.90234375,49.34375)"/>
<path d="M0 0 C7 0 7 0 9.51953125 2.16796875 C10.27621094 3.16441406 11.03289062 4.16085938 11.8125 5.1875 C12.43427124 5.98704102 12.43427124 5.98704102 13.06860352 6.80273438 C13.94563314 7.93583225 14.8128793 9.07656067 15.67089844 10.22412109 C17.01246157 12.01665052 18.38051363 13.78559998 19.7578125 15.55078125 C22.19580959 18.68284823 24.60449694 21.83529872 27 25 C27.91458984 26.0828125 27.91458984 26.0828125 28.84765625 27.1875 C29.22792969 27.785625 29.60820312 28.38375 30 29 C29.67 29.99 29.34 30.98 29 32 C27.515 32.495 27.515 32.495 26 33 C20.81756564 26.89792697 15.71166993 20.75583104 10.875 14.375 C9.75738281 12.90160156 9.75738281 12.90160156 8.6171875 11.3984375 C7 9 7 9 7 7 C6.34 7 5.68 7 5 7 C5 14.59 5 22.18 5 30 C3.35 30 1.7 30 0 30 C0 20.1 0 10.2 0 0 Z " fill="#F1F1F1" transform="translate(140,66)"/>
<path d="M0 0 C2.31 0 4.62 0 7 0 C7 1.98 7 3.96 7 6 C6.34 6 5.68 6 5 6 C5 13.92 5 21.84 5 30 C3.35 30 1.7 30 0 30 C0 20.1 0 10.2 0 0 Z " fill="#F7F7F7" transform="translate(140,66)"/>
<path d="M0 0 C2.22111056 1.5561074 3.64286436 3.14105002 5.26953125 5.30859375 C6.06810547 6.34306641 6.06810547 6.34306641 6.8828125 7.3984375 C7.23730469 8.04941406 7.59179688 8.70039062 7.95703125 9.37109375 C7.62703125 10.36109375 7.29703125 11.35109375 6.95703125 12.37109375 C5.96703125 12.70109375 4.97703125 13.03109375 3.95703125 13.37109375 C0.65703125 9.41109375 -2.64296875 5.45109375 -6.04296875 1.37109375 C-2.04296875 -0.62890625 -2.04296875 -0.62890625 0 0 Z " fill="#F0F0F0" transform="translate(162.04296875,85.62890625)"/>
<path d="M0 0 C1.65 0 3.3 0 5 0 C5 4.62 5 9.24 5 14 C3.35 14.33 1.7 14.66 0 15 C0 10.05 0 5.1 0 0 Z " fill="#838383" transform="translate(166,66)"/>
<path d="M0 0 C3.28788824 3.11016455 5.83735988 6.01618925 8 10 C7.01 10 6.02 10 5 10 C5 10.66 5 11.32 5 12 C2.25068173 11.31267043 0.46581179 10.64439778 -1.22265625 8.30859375 C-2.20324656 6.56883675 -3.10688055 4.7862389 -4 3 C-2.68 2.01 -1.36 1.02 0 0 Z " fill="#333333" transform="translate(170,96)"/>
<path d="M0 0 C1.65 0 3.3 0 5 0 C5 2.64 5 5.28 5 8 C2.525 7.01 2.525 7.01 0 6 C0 4.02 0 2.04 0 0 Z " fill="#BEBEBE" transform="translate(166,66)"/>
<path d="M0 0 C0.99 0.99 1.98 1.98 3 3 C2.34 4.65 1.68 6.3 1 8 C-0.65 6.35 -2.3 4.7 -4 3 C-2.68 2.01 -1.36 1.02 0 0 Z " fill="#7B7B7B" transform="translate(170,96)"/>
<path d="M0 0 C1.32 1.32 2.64 2.64 4 4 C3.67 4.99 3.34 5.98 3 7 C2.01 7.33 1.02 7.66 0 8 C-1.5 6.625 -1.5 6.625 -3 5 C-3 3 -3 3 -1.5 1.375 C-1.005 0.92125 -0.51 0.4675 0 0 Z " fill="#BEBEBE" transform="translate(166,91)"/>
<path d="M0 0 C1.32 0 2.64 0 4 0 C4 1.32 4 2.64 4 4 C2.68 4.33 1.36 4.66 0 5 C-0.5625 3.0625 -0.5625 3.0625 -1 1 C-0.67 0.67 -0.34 0.34 0 0 Z " fill="#404040" transform="translate(167,80)"/>
<path d="M0 0 C1.65 0 3.3 0 5 0 C5 0.99 5 1.98 5 3 C3.68 3.33 2.36 3.66 1 4 C0.67 2.68 0.34 1.36 0 0 Z " fill="#E9E9E9" transform="translate(166,66)"/>
</svg>
